<svg id="svg" fill="#459d20" stroke="#459d20" width="200" height="200" version="1.1" viewBox="140 140 520 520" xmlns="http://www.w3.org/2000/svg" stroke-width="5" data-darkreader-inline-fill="" data-darkreader-inline-stroke="" style="--darkreader-inline-fill: #377e1a; --darkreader-inline-stroke: #8be067;">
    <g id="IconSvg_bgCarrier" stroke-width="0"></g>
    <g id="IconSvg_tracerCarrier" stroke-linecap="round" stroke-linejoin="round" stroke="#CCCCCC" stroke-width="50" data-darkreader-inline-stroke="" style="--darkreader-inline-stroke: #c8c3bc;">
      <g xmlns="http://www.w3.org/2000/svg">
  <path d="m379.64 467.59c-6.1562-6.1562-16.105-6.1562-22.262 0l-31.488 31.488c-6.1562 6.1562-6.1562 16.105 0 22.262l31.488 31.488c3.0703 3.0703 7.1016 4.6133 11.133 4.6133s8.0625-1.543 11.133-4.6133c6.1562-6.1562 6.1562-16.105 0-22.262l-20.359-20.355 20.355-20.355c6.1562-6.1562 6.1562-16.109 0-22.266z"></path>
  <path d="m420.36 552.82c3.0703 3.0703 7.1016 4.6133 11.133 4.6133s8.0625-1.543 11.133-4.6133l31.488-31.488c6.1562-6.1562 6.1562-16.105 0-22.262l-31.488-31.488c-6.1562-6.1562-16.105-6.1562-22.262 0s-6.1562 16.105 0 22.262l20.352 20.359-20.355 20.355c-6.1562 6.1562-6.1562 16.109 0 22.262z"></path>
  <path d="m620.41 258.3c0-43.406-35.312-78.719-78.719-78.719s-78.719 35.312-78.719 78.719c0 38.117 27.254 69.965 63.293 77.16-0.066406 0.53906-0.32031 1.0117-0.32031 1.5625v31.488h-78.719c-8.6914 0-15.742 7.0547-15.742 15.742v31.488h-15.742v-62.977h47.23c8.6914 0 15.742-7.0547 15.742-15.742 0-8.6914-7.0547-15.742-15.742-15.742v-31.492c0-8.6914-7.0547-15.742-15.742-15.742h-31.488l-0.003906-78.723c0-8.6914-7.0547-15.742-15.742-15.742h-47.23c-8.6914 0-15.742 7.0547-15.742 15.742v47.23h-31.488c-8.6953 0.003906-15.75 7.0586-15.75 15.746v62.977c-8.6914 0-15.742 7.0547-15.742 15.742 0 8.6914 7.0547 15.742 15.742 15.742h94.465v62.977h-15.742v-31.488c0-8.6914-7.0547-15.742-15.742-15.742l-110.21 0.003907v-18.641c18.277-6.5195 31.488-23.84 31.488-44.336 0-26.039-21.191-47.23-47.23-47.23-8.6758-0.003907-15.746-7.0703-15.746-15.746 0-8.6758 7.0703-15.742 15.742-15.742 8.6758 0 15.742 7.0703 15.742 15.742 0 8.6914 7.0547 15.742 15.742 15.742 8.6914 0 15.742-7.0547 15.742-15.742 0-20.5-13.211-37.816-31.488-44.336l0.007813-2.8984c0-8.6914-7.0547-15.742-15.742-15.742-8.6914 0-15.746 7.0547-15.746 15.742v2.8984c-18.277 6.5195-31.488 23.836-31.488 44.336 0 26.039 21.191 47.23 47.23 47.23 8.6758 0 15.742 7.0703 15.742 15.742 0 8.6758-7.0703 15.742-15.742 15.742-8.6758 0-15.742-7.0703-15.742-15.742 0-8.6914-7.0547-15.742-15.742-15.742-8.6914 0-15.742 7.0547-15.742 15.742 0 20.5 13.211 37.816 31.488 44.336l-0.003907 34.387c0 8.6914 7.0547 15.742 15.742 15.742h110.21v15.742l-62.973 0.003907c-8.6914 0-15.742 7.0547-15.742 15.742v141.7l-17.445 0.003906c-8.6914 0-15.742 7.0547-15.742 15.742 0 17.367 14.895 31.488 33.188 31.488h283.39c17.539 0 29.789-12.941 29.789-31.488 0-8.6914-7.0547-15.742-15.742-15.742h-14.051v-141.7c0-8.6914-7.0547-15.742-15.742-15.742h-62.977v-15.742h78.719c8.6914 0 15.742-7.0547 15.742-15.742v-47.23c0-0.55078-0.25-1.0234-0.31641-1.5586 36.043-7.2031 63.293-39.055 63.293-77.172zm-188.93 47.234v15.742h-15.742v-15.742zm-110.21 15.742v-47.23h15.742v47.23zm47.234 0v-110.21h15.742v110.21zm141.7 125.95v125.95h-220.42v-125.95zm31.488-141.7c-26.039 0-47.23-21.191-47.23-47.23 0-26.039 21.191-47.23 47.23-47.23 26.039 0 47.23 21.191 47.23 47.23 0 26.039-21.191 47.23-47.23 47.23z"></path>
  <path d="m546.31 231.43-11.133 11.133h-9.2266c-8.6914 0-15.742 7.0547-15.742 15.742 0 8.6914 7.0547 15.742 15.742 15.742h15.742c4.1719 0 8.1875-1.6523 11.133-4.6133l15.742-15.742c6.1562-6.1562 6.1562-16.105 0-22.262-6.1523-6.1562-16.102-6.1562-22.258 0z"></path>
 </g>

      </g>
     <g id="IconSvg_iconCarrier">
      <g xmlns="http://www.w3.org/2000/svg">
  <path d="m379.64 467.59c-6.1562-6.1562-16.105-6.1562-22.262 0l-31.488 31.488c-6.1562 6.1562-6.1562 16.105 0 22.262l31.488 31.488c3.0703 3.0703 7.1016 4.6133 11.133 4.6133s8.0625-1.543 11.133-4.6133c6.1562-6.1562 6.1562-16.105 0-22.262l-20.359-20.355 20.355-20.355c6.1562-6.1562 6.1562-16.109 0-22.266z"></path>
  <path d="m420.36 552.82c3.0703 3.0703 7.1016 4.6133 11.133 4.6133s8.0625-1.543 11.133-4.6133l31.488-31.488c6.1562-6.1562 6.1562-16.105 0-22.262l-31.488-31.488c-6.1562-6.1562-16.105-6.1562-22.262 0s-6.1562 16.105 0 22.262l20.352 20.359-20.355 20.355c-6.1562 6.1562-6.1562 16.109 0 22.262z"></path>
  <path d="m620.41 258.3c0-43.406-35.312-78.719-78.719-78.719s-78.719 35.312-78.719 78.719c0 38.117 27.254 69.965 63.293 77.16-0.066406 0.53906-0.32031 1.0117-0.32031 1.5625v31.488h-78.719c-8.6914 0-15.742 7.0547-15.742 15.742v31.488h-15.742v-62.977h47.23c8.6914 0 15.742-7.0547 15.742-15.742 0-8.6914-7.0547-15.742-15.742-15.742v-31.492c0-8.6914-7.0547-15.742-15.742-15.742h-31.488l-0.003906-78.723c0-8.6914-7.0547-15.742-15.742-15.742h-47.23c-8.6914 0-15.742 7.0547-15.742 15.742v47.23h-31.488c-8.6953 0.003906-15.75 7.0586-15.75 15.746v62.977c-8.6914 0-15.742 7.0547-15.742 15.742 0 8.6914 7.0547 15.742 15.742 15.742h94.465v62.977h-15.742v-31.488c0-8.6914-7.0547-15.742-15.742-15.742l-110.21 0.003907v-18.641c18.277-6.5195 31.488-23.84 31.488-44.336 0-26.039-21.191-47.23-47.23-47.23-8.6758-0.003907-15.746-7.0703-15.746-15.746 0-8.6758 7.0703-15.742 15.742-15.742 8.6758 0 15.742 7.0703 15.742 15.742 0 8.6914 7.0547 15.742 15.742 15.742 8.6914 0 15.742-7.0547 15.742-15.742 0-20.5-13.211-37.816-31.488-44.336l0.007813-2.8984c0-8.6914-7.0547-15.742-15.742-15.742-8.6914 0-15.746 7.0547-15.746 15.742v2.8984c-18.277 6.5195-31.488 23.836-31.488 44.336 0 26.039 21.191 47.23 47.23 47.23 8.6758 0 15.742 7.0703 15.742 15.742 0 8.6758-7.0703 15.742-15.742 15.742-8.6758 0-15.742-7.0703-15.742-15.742 0-8.6914-7.0547-15.742-15.742-15.742-8.6914 0-15.742 7.0547-15.742 15.742 0 20.5 13.211 37.816 31.488 44.336l-0.003907 34.387c0 8.6914 7.0547 15.742 15.742 15.742h110.21v15.742l-62.973 0.003907c-8.6914 0-15.742 7.0547-15.742 15.742v141.7l-17.445 0.003906c-8.6914 0-15.742 7.0547-15.742 15.742 0 17.367 14.895 31.488 33.188 31.488h283.39c17.539 0 29.789-12.941 29.789-31.488 0-8.6914-7.0547-15.742-15.742-15.742h-14.051v-141.7c0-8.6914-7.0547-15.742-15.742-15.742h-62.977v-15.742h78.719c8.6914 0 15.742-7.0547 15.742-15.742v-47.23c0-0.55078-0.25-1.0234-0.31641-1.5586 36.043-7.2031 63.293-39.055 63.293-77.172zm-188.93 47.234v15.742h-15.742v-15.742zm-110.21 15.742v-47.23h15.742v47.23zm47.234 0v-110.21h15.742v110.21zm141.7 125.95v125.95h-220.42v-125.95zm31.488-141.7c-26.039 0-47.23-21.191-47.23-47.23 0-26.039 21.191-47.23 47.23-47.23 26.039 0 47.23 21.191 47.23 47.23 0 26.039-21.191 47.23-47.23 47.23z"></path>
  <path d="m546.31 231.43-11.133 11.133h-9.2266c-8.6914 0-15.742 7.0547-15.742 15.742 0 8.6914 7.0547 15.742 15.742 15.742h15.742c4.1719 0 8.1875-1.6523 11.133-4.6133l15.742-15.742c6.1562-6.1562 6.1562-16.105 0-22.262-6.1523-6.1562-16.102-6.1562-22.258 0z"></path>
 </g>

      </g>
      </svg>